<?xml version="1.0" encoding="UTF-8" standalone="no"?>
<!-- Created with Inkscape (http://www.inkscape.org/) -->

<svg
   width="2000"
   height="2000"
   viewBox="0 0 529.16665 529.16666"
   version="1.1"
   id="svg1"
   xml:space="preserve"
   inkscape:version="1.3.2 (091e20e, 2023-11-25, custom)"
   sodipodi:docname="Assets.svg"
   xmlns:inkscape="http://www.inkscape.org/namespaces/inkscape"
   xmlns:sodipodi="http://sodipodi.sourceforge.net/DTD/sodipodi-0.dtd"
   xmlns="http://www.w3.org/2000/svg"
   xmlns:svg="http://www.w3.org/2000/svg"><sodipodi:namedview
     id="namedview1"
     pagecolor="#ffffff"
     bordercolor="#000000"
     borderopacity="0.25"
     inkscape:showpageshadow="2"
     inkscape:pageopacity="0.0"
     inkscape:pagecheckerboard="0"
     inkscape:deskcolor="#d1d1d1"
     inkscape:document-units="px"
     showgrid="true"
     inkscape:zoom="2.8284271"
     inkscape:cx="171.82695"
     inkscape:cy="99.702057"
     inkscape:window-width="1920"
     inkscape:window-height="1009"
     inkscape:window-x="2552"
     inkscape:window-y="-8"
     inkscape:window-maximized="1"
     inkscape:current-layer="layer2"><inkscape:grid
       id="grid1"
       units="px"
       originx="0"
       originy="0"
       spacingx="0.26458333"
       spacingy="0.26458333"
       empcolor="#0099e5"
       empopacity="0.30196078"
       color="#0099e5"
       opacity="0.14901961"
       empspacing="5"
       dotted="false"
       gridanglex="30"
       gridanglez="30"
       visible="true" /></sodipodi:namedview><defs
     id="defs1"><inkscape:path-effect
       effect="fillet_chamfer"
       id="path-effect26"
       is_visible="true"
       lpeversion="1"
       nodesatellites_param="F,0,0,1,0,0.26300601,0,1 @ F,0,0,1,0,0.26294807,0,1 @ F,0,0,1,0,0.26653362,0,1 @ F,0,0,1,0,0.27019778,0,1"
       radius="0"
       unit="px"
       method="auto"
       mode="F"
       chamfer_steps="1"
       flexible="false"
       use_knot_distance="true"
       apply_no_radius="true"
       apply_with_radius="true"
       only_selected="false"
       hide_knots="false" /><inkscape:path-effect
       effect="fillet_chamfer"
       id="path-effect23"
       is_visible="true"
       lpeversion="1"
       nodesatellites_param="F,0,0,1,0,0.52916536,0,1 @ F,0,0,1,0,0.52916645,0,1 @ F,0,0,1,0,0.52916798,0,1 @ F,0,0,1,0,0.51924474,0,1"
       radius="0"
       unit="px"
       method="auto"
       mode="F"
       chamfer_steps="1"
       flexible="false"
       use_knot_distance="true"
       apply_no_radius="true"
       apply_with_radius="true"
       only_selected="false"
       hide_knots="false" /><inkscape:path-effect
       effect="fillet_chamfer"
       id="path-effect21"
       is_visible="true"
       lpeversion="1"
       nodesatellites_param="F,0,0,1,0,0.66476115,0,1 @ F,0,0,1,0,0,0,1 @ F,0,0,1,0,0.5291664,0,1 @ F,0,0,1,0,0.52916701,0,1 @ F,0,0,1,0,0,0,1 @ F,0,0,1,0,0.66779375,0,1"
       radius="0"
       unit="px"
       method="auto"
       mode="F"
       chamfer_steps="1"
       flexible="false"
       use_knot_distance="true"
       apply_no_radius="true"
       apply_with_radius="true"
       only_selected="false"
       hide_knots="false" /><inkscape:path-effect
       effect="fillet_chamfer"
       id="path-effect29"
       is_visible="true"
       lpeversion="1"
       nodesatellites_param="F,0,0,1,0,0.52916536,0,1 @ F,0,0,1,0,0.52916645,0,1 @ F,0,0,1,0,0.52916798,0,1 @ F,0,0,1,0,0.51924474,0,1"
       radius="0"
       unit="px"
       method="auto"
       mode="F"
       chamfer_steps="1"
       flexible="false"
       use_knot_distance="true"
       apply_no_radius="true"
       apply_with_radius="true"
       only_selected="false"
       hide_knots="false" /><inkscape:path-effect
       effect="fillet_chamfer"
       id="path-effect28"
       is_visible="true"
       lpeversion="1"
       nodesatellites_param="F,0,0,1,0,0.26300601,0,1 @ F,0,0,1,0,0.26294807,0,1 @ F,0,0,1,0,0.26653362,0,1 @ F,0,0,1,0,0.27019778,0,1"
       radius="0"
       unit="px"
       method="auto"
       mode="F"
       chamfer_steps="1"
       flexible="false"
       use_knot_distance="true"
       apply_no_radius="true"
       apply_with_radius="true"
       only_selected="false"
       hide_knots="false" /><inkscape:path-effect
       effect="fillet_chamfer"
       id="path-effect24"
       is_visible="true"
       lpeversion="1"
       nodesatellites_param="F,0,0,1,0,0.66476115,0,1 @ F,0,0,1,0,0,0,1 @ F,0,0,1,0,0.5291664,0,1 @ F,0,0,1,0,0.52916701,0,1 @ F,0,0,1,0,0,0,1 @ F,0,0,1,0,0.66779375,0,1"
       radius="0"
       unit="px"
       method="auto"
       mode="F"
       chamfer_steps="1"
       flexible="false"
       use_knot_distance="true"
       apply_no_radius="true"
       apply_with_radius="true"
       only_selected="false"
       hide_knots="false" /><inkscape:path-effect
       effect="fillet_chamfer"
       id="path-effect19"
       is_visible="true"
       lpeversion="1"
       nodesatellites_param="F,0,0,1,0,0,0,1 @ F,0,0,1,0,0,0,1 @ F,0,0,1,0,0,0,1 @ F,0,0,1,0,0,0,1 | F,0,0,1,0,0,0,1 @ F,0,0,1,0,0,0,1 @ F,0,0,1,0,0,0,1 @ F,0,0,1,0,0,0,1 @ F,0,0,1,0,0,0,1 @ F,0,0,1,0,0,0,1 @ F,0,0,1,0,0,0,1 @ F,0,0,1,0,0,0,1"
       radius="0"
       unit="px"
       method="auto"
       mode="F"
       chamfer_steps="1"
       flexible="false"
       use_knot_distance="true"
       apply_no_radius="true"
       apply_with_radius="true"
       only_selected="false"
       hide_knots="false" /><inkscape:path-effect
       effect="fillet_chamfer"
       id="path-effect14"
       is_visible="true"
       lpeversion="1"
       nodesatellites_param="F,0,0,1,0,0,0,1 @ F,0,0,1,0,0,0,1 @ F,0,0,1,0,0,0,1 @ F,0,0,1,0,0,0,1 @ F,0,0,1,0,0,0,1 @ F,0,0,1,0,0,0,1 @ F,0,0,1,0,0,0,1 @ F,0,0,1,0,0,0,1"
       radius="0"
       unit="px"
       method="auto"
       mode="F"
       chamfer_steps="1"
       flexible="false"
       use_knot_distance="true"
       apply_no_radius="true"
       apply_with_radius="true"
       only_selected="false"
       hide_knots="false" /><inkscape:path-effect
       effect="fillet_chamfer"
       id="path-effect13"
       is_visible="true"
       lpeversion="1"
       nodesatellites_param="F,0,0,1,0,0.66476115,0,1 @ F,0,0,1,0,0,0,1 @ F,0,0,1,0,0.5291664,0,1 @ F,0,0,1,0,0.52916701,0,1 @ F,0,0,1,0,0,0,1 @ F,0,0,1,0,0.66779375,0,1"
       radius="0"
       unit="px"
       method="auto"
       mode="F"
       chamfer_steps="1"
       flexible="false"
       use_knot_distance="true"
       apply_no_radius="true"
       apply_with_radius="true"
       only_selected="false"
       hide_knots="false" /><inkscape:path-effect
       effect="fillet_chamfer"
       id="path-effect12"
       is_visible="true"
       lpeversion="1"
       nodesatellites_param="F,0,0,1,0,1.0583348,0,1 @ F,0,0,1,0,1.0583348,0,1 @ F,0,0,1,0,1.0583348,0,1 @ F,0,0,1,0,1.0583348,0,1"
       radius="0"
       unit="px"
       method="auto"
       mode="F"
       chamfer_steps="1"
       flexible="false"
       use_knot_distance="true"
       apply_no_radius="true"
       apply_with_radius="true"
       only_selected="false"
       hide_knots="false" /><inkscape:path-effect
       effect="fillet_chamfer"
       id="path-effect11"
       is_visible="true"
       lpeversion="1"
       nodesatellites_param="F,0,0,1,0,0.26458272,0,1 @ F,0,0,1,0,0,0,1 @ F,0,0,1,0,0,0,1 @ F,0,0,1,0,0,0,1 @ F,0,0,1,0,0,0,1 @ F,0,0,1,0,0.52916766,0,1"
       radius="0"
       unit="px"
       method="auto"
       mode="F"
       chamfer_steps="1"
       flexible="false"
       use_knot_distance="true"
       apply_no_radius="true"
       apply_with_radius="true"
       only_selected="false"
       hide_knots="false" /></defs><g
     inkscape:label="Background"
     inkscape:groupmode="layer"
     id="layer1"
     style="display:inline"
     sodipodi:insensitive="true"><rect
       style="fill:#faffff;stroke-width:6.61458;stroke-linecap:round;stroke-linejoin:round"
       id="rect1"
       width="529.16669"
       height="529.16669"
       x="0"
       y="0" /></g><g
     inkscape:groupmode="layer"
     id="layer2"
     inkscape:label="CarFind"
     inkscape:highlight-color="#fbe600"><g
       id="g29"
       inkscape:label="BackGround"
       inkscape:export-filename="MiniGames\CarCrash\BackGround.png"
       inkscape:export-xdpi="15.36"
       inkscape:export-ydpi="15.36"
       transform="scale(1.5000001)"><rect
         style="display:inline;fill:#7583bf;fill-opacity:1;stroke:#000000;stroke-width:0;stroke-linecap:round;stroke-linejoin:round;stroke-dasharray:none;stroke-opacity:1"
         id="rect2"
         width="52.916664"
         height="52.91666"
         x="3.469447e-18"
         y="0"
         inkscape:label="BackGround" /><path
         id="rect27"
         style="display:inline;fill:#655d9c;fill-opacity:1;stroke:#000000;stroke-width:0;stroke-linecap:round;stroke-linejoin:round;stroke-dasharray:none;stroke-opacity:1"
         inkscape:label="BackGround"
         d="M 0,0 V 1.6536458 H 1.6536458 V 0 Z M 1.6536458,1.6536458 V 3.3072916 H 3.3072916 V 1.6536458 Z m 1.6536458,0 H 4.9609374 V 0 H 3.3072916 Z m 1.6536458,0 V 3.3072916 H 6.6145832 V 1.6536458 Z m 1.6536458,0 H 8.268229 V 0 H 6.6145832 Z m 1.6536458,0 V 3.3072916 H 9.9218748 V 1.6536458 Z m 1.6536458,0 H 11.575521 V 0 H 9.9218748 Z m 1.6536462,0 v 1.6536458 h 1.653645 V 1.6536458 Z m 1.653645,0 h 1.653646 V 0 h -1.653646 z m 1.653646,0 v 1.6536458 h 1.653646 V 1.6536458 Z m 1.653646,0 h 1.653646 V 0 h -1.653646 z m 1.653646,0 V 3.3072916 H 19.84375 V 1.6536458 Z m 1.653646,0 h 1.653645 V 0 H 19.84375 Z m 1.653645,0 v 1.6536458 h 1.653646 V 1.6536458 Z m 1.653646,0 h 1.653646 V 0 h -1.653646 z m 1.653646,0 v 1.6536458 h 1.653646 V 1.6536458 Z m 1.653646,0 h 1.653646 V 0 h -1.653646 z m 1.653646,0 v 1.6536458 h 1.653645 V 1.6536458 Z m 1.653645,0 H 31.41927 V 0 h -1.653646 z m 1.653646,0 v 1.6536458 h 1.653646 V 1.6536458 Z m 1.653646,0 h 1.653646 V 0 h -1.653646 z m 1.653646,0 v 1.6536458 h 1.653646 V 1.6536458 Z m 1.653646,0 h 1.653645 V 0 h -1.653645 z m 1.653645,0 v 1.6536458 h 1.653646 V 1.6536458 Z m 1.653646,0 h 1.653646 V 0 h -1.653646 z m 1.653646,0 v 1.6536458 h 1.653646 V 1.6536458 Z m 1.653646,0 h 1.653646 V 0 h -1.653646 z m 1.653646,0 v 1.6536458 h 1.653645 V 1.6536458 Z m 1.653645,0 h 1.653646 V 0 h -1.653646 z m 1.653646,0 v 1.6536458 h 1.653646 V 1.6536458 Z m 1.653646,0 H 51.26302 V 0 h -1.653646 z m 1.653646,0 v 1.6536458 h 1.653646 V 1.6536458 Z m 0,1.6536458 h -1.653646 v 1.6536458 h 1.653646 z m 0,1.6536458 v 1.6536458 h 1.653646 V 4.9609374 Z m 0,1.6536458 H 49.609374 V 8.268229 h 1.653646 z m 0,1.6536458 v 1.6536458 h 1.653646 V 8.268229 Z m 0,1.6536458 h -1.653646 v 1.6536462 h 1.653646 z m 0,1.6536462 v 1.653645 h 1.653646 v -1.653645 z m 0,1.653645 h -1.653646 v 1.653646 h 1.653646 z m 0,1.653646 v 1.653646 h 1.653646 v -1.653646 z m 0,1.653646 h -1.653646 v 1.653646 h 1.653646 z m 0,1.653646 v 1.653646 h 1.653646 v -1.653646 z m 0,1.653646 h -1.653646 v 1.653645 h 1.653646 z m 0,1.653645 v 1.653646 h 1.653646 v -1.653646 z m 0,1.653646 h -1.653646 v 1.653646 h 1.653646 z m 0,1.653646 v 1.653646 h 1.653646 v -1.653646 z m 0,1.653646 h -1.653646 v 1.653646 h 1.653646 z m 0,1.653646 v 1.653645 h 1.653646 v -1.653645 z m 0,1.653645 h -1.653646 v 1.653646 h 1.653646 z m 0,1.653646 v 1.653646 h 1.653646 V 31.41927 Z m 0,1.653646 h -1.653646 v 1.653646 h 1.653646 z m 0,1.653646 v 1.653646 h 1.653646 v -1.653646 z m 0,1.653646 h -1.653646 v 1.653645 h 1.653646 z m 0,1.653645 v 1.653646 h 1.653646 v -1.653646 z m 0,1.653646 h -1.653646 v 1.653646 h 1.653646 z m 0,1.653646 v 1.653646 h 1.653646 v -1.653646 z m 0,1.653646 h -1.653646 v 1.653646 h 1.653646 z m 0,1.653646 v 1.653645 h 1.653646 v -1.653645 z m 0,1.653645 h -1.653646 v 1.653646 h 1.653646 z m 0,1.653646 v 1.653646 h 1.653646 v -1.653646 z m 0,1.653646 h -1.653646 v 1.653646 h 1.653646 z m 0,1.653646 v 1.653646 h 1.653646 V 51.26302 Z m -1.653646,0 h -1.653646 v 1.653646 h 1.653646 z m -1.653646,0 v -1.653646 h -1.653646 v 1.653646 z m -1.653646,0 h -1.653645 v 1.653646 h 1.653645 z m -1.653645,0 v -1.653646 h -1.653646 v 1.653646 z m -1.653646,0 h -1.653646 v 1.653646 h 1.653646 z m -1.653646,0 v -1.653646 h -1.653646 v 1.653646 z m -1.653646,0 h -1.653646 v 1.653646 h 1.653646 z m -1.653646,0 v -1.653646 h -1.653645 v 1.653646 z m -1.653645,0 h -1.653646 v 1.653646 h 1.653646 z m -1.653646,0 v -1.653646 h -1.653646 v 1.653646 z m -1.653646,0 H 31.41927 v 1.653646 h 1.653646 z m -1.653646,0 v -1.653646 h -1.653646 v 1.653646 z m -1.653646,0 h -1.653645 v 1.653646 h 1.653645 z m -1.653645,0 v -1.653646 h -1.653646 v 1.653646 z m -1.653646,0 h -1.653646 v 1.653646 h 1.653646 z m -1.653646,0 v -1.653646 h -1.653646 v 1.653646 z m -1.653646,0 h -1.653646 v 1.653646 h 1.653646 z m -1.653646,0 V 49.609374 H 19.84375 v 1.653646 z m -1.653645,0 h -1.653646 v 1.653646 h 1.653646 z m -1.653646,0 v -1.653646 h -1.653646 v 1.653646 z m -1.653646,0 h -1.653646 v 1.653646 h 1.653646 z m -1.653646,0 v -1.653646 h -1.653646 v 1.653646 z m -1.653646,0 h -1.653645 v 1.653646 h 1.653645 z m -1.653645,0 V 49.609374 H 9.9218748 v 1.653646 z m -1.6536462,0 H 8.268229 v 1.653646 h 1.6536458 z m -1.6536458,0 V 49.609374 H 6.6145832 v 1.653646 z m -1.6536458,0 H 4.9609374 v 1.653646 h 1.6536458 z m -1.6536458,0 V 49.609374 H 3.3072916 v 1.653646 z m -1.6536458,0 H 1.6536458 v 1.653646 h 1.6536458 z m -1.6536458,0 V 49.609374 H 0 v 1.653646 z m 0,-1.653646 H 3.3072916 V 47.955728 H 1.6536458 Z m 0,-1.653646 V 46.302082 H 0 v 1.653646 z m 0,-1.653646 H 3.3072916 V 44.648437 H 1.6536458 Z m 0,-1.653645 V 42.994791 H 0 v 1.653646 z m 0,-1.653646 H 3.3072916 V 41.341145 H 1.6536458 Z m 0,-1.653646 V 39.687499 H 0 v 1.653646 z m 0,-1.653646 H 3.3072916 V 38.033853 H 1.6536458 Z m 0,-1.653646 V 36.380208 H 0 v 1.653645 z m 0,-1.653645 H 3.3072916 V 34.726562 H 1.6536458 Z m 0,-1.653646 V 33.072916 H 0 v 1.653646 z m 0,-1.653646 H 3.3072916 V 31.41927 H 1.6536458 Z m 0,-1.653646 V 29.765624 H 0 v 1.653646 z m 0,-1.653646 H 3.3072916 V 28.111979 H 1.6536458 Z m 0,-1.653645 V 26.458333 H 0 v 1.653646 z m 0,-1.653646 H 3.3072916 V 24.804687 H 1.6536458 Z m 0,-1.653646 V 23.151041 H 0 v 1.653646 z m 0,-1.653646 H 3.3072916 V 21.497395 H 1.6536458 Z m 0,-1.653646 V 19.84375 H 0 v 1.653645 z m 0,-1.653645 H 3.3072916 V 18.190104 H 1.6536458 Z m 0,-1.653646 V 16.536458 H 0 v 1.653646 z m 0,-1.653646 H 3.3072916 V 14.882812 H 1.6536458 Z m 0,-1.653646 V 13.229166 H 0 v 1.653646 z m 0,-1.653646 H 3.3072916 V 11.575521 H 1.6536458 Z m 0,-1.653645 V 9.9218748 H 0 v 1.6536462 z m 0,-1.6536462 H 3.3072916 V 8.268229 H 1.6536458 Z m 0,-1.6536458 V 6.6145832 H 0 V 8.268229 Z m 0,-1.6536458 H 3.3072916 V 4.9609374 H 1.6536458 Z m 0,-1.6536458 V 3.3072916 H 0 v 1.6536458 z m 1.6536458,0 H 4.9609374 V 3.3072916 H 3.3072916 Z m 1.6536458,0 V 6.6145832 H 6.6145832 V 4.9609374 Z m 1.6536458,0 H 8.268229 V 3.3072916 H 6.6145832 Z m 1.6536458,0 V 6.6145832 H 9.9218748 V 4.9609374 Z m 1.6536458,0 H 11.575521 V 3.3072916 H 9.9218748 Z m 1.6536462,0 v 1.6536458 h 1.653645 V 4.9609374 Z m 1.653645,0 h 1.653646 V 3.3072916 h -1.653646 z m 1.653646,0 v 1.6536458 h 1.653646 V 4.9609374 Z m 1.653646,0 h 1.653646 V 3.3072916 h -1.653646 z m 1.653646,0 V 6.6145832 H 19.84375 V 4.9609374 Z m 1.653646,0 h 1.653645 V 3.3072916 H 19.84375 Z m 1.653645,0 v 1.6536458 h 1.653646 V 4.9609374 Z m 1.653646,0 h 1.653646 V 3.3072916 h -1.653646 z m 1.653646,0 v 1.6536458 h 1.653646 V 4.9609374 Z m 1.653646,0 h 1.653646 V 3.3072916 h -1.653646 z m 1.653646,0 v 1.6536458 h 1.653645 V 4.9609374 Z m 1.653645,0 H 31.41927 V 3.3072916 h -1.653646 z m 1.653646,0 v 1.6536458 h 1.653646 V 4.9609374 Z m 1.653646,0 h 1.653646 V 3.3072916 h -1.653646 z m 1.653646,0 v 1.6536458 h 1.653646 V 4.9609374 Z m 1.653646,0 h 1.653645 V 3.3072916 h -1.653645 z m 1.653645,0 v 1.6536458 h 1.653646 V 4.9609374 Z m 1.653646,0 h 1.653646 V 3.3072916 h -1.653646 z m 1.653646,0 v 1.6536458 h 1.653646 V 4.9609374 Z m 1.653646,0 h 1.653646 V 3.3072916 h -1.653646 z m 1.653646,0 v 1.6536458 h 1.653645 V 4.9609374 Z m 1.653645,0 h 1.653646 V 3.3072916 h -1.653646 z m 1.653646,0 v 1.6536458 h 1.653646 V 4.9609374 Z m 0,1.6536458 H 46.302082 V 8.268229 h 1.653646 z m 0,1.6536458 v 1.6536458 h 1.653646 V 8.268229 Z m 0,1.6536458 h -1.653646 v 1.6536462 h 1.653646 z m 0,1.6536462 v 1.653645 h 1.653646 v -1.653645 z m 0,1.653645 h -1.653646 v 1.653646 h 1.653646 z m 0,1.653646 v 1.653646 h 1.653646 v -1.653646 z m 0,1.653646 h -1.653646 v 1.653646 h 1.653646 z m 0,1.653646 v 1.653646 h 1.653646 v -1.653646 z m 0,1.653646 h -1.653646 v 1.653645 h 1.653646 z m 0,1.653645 v 1.653646 h 1.653646 v -1.653646 z m 0,1.653646 h -1.653646 v 1.653646 h 1.653646 z m 0,1.653646 v 1.653646 h 1.653646 v -1.653646 z m 0,1.653646 h -1.653646 v 1.653646 h 1.653646 z m 0,1.653646 v 1.653645 h 1.653646 v -1.653645 z m 0,1.653645 h -1.653646 v 1.653646 h 1.653646 z m 0,1.653646 v 1.653646 h 1.653646 V 31.41927 Z m 0,1.653646 h -1.653646 v 1.653646 h 1.653646 z m 0,1.653646 v 1.653646 h 1.653646 v -1.653646 z m 0,1.653646 h -1.653646 v 1.653645 h 1.653646 z m 0,1.653645 v 1.653646 h 1.653646 v -1.653646 z m 0,1.653646 h -1.653646 v 1.653646 h 1.653646 z m 0,1.653646 v 1.653646 h 1.653646 v -1.653646 z m 0,1.653646 h -1.653646 v 1.653646 h 1.653646 z m 0,1.653646 v 1.653645 h 1.653646 v -1.653645 z m 0,1.653645 h -1.653646 v 1.653646 h 1.653646 z m 0,1.653646 v 1.653646 h 1.653646 v -1.653646 z m -1.653646,0 h -1.653645 v 1.653646 h 1.653645 z m -1.653645,0 v -1.653646 h -1.653646 v 1.653646 z m -1.653646,0 h -1.653646 v 1.653646 h 1.653646 z m -1.653646,0 v -1.653646 h -1.653646 v 1.653646 z m -1.653646,0 h -1.653646 v 1.653646 h 1.653646 z m -1.653646,0 v -1.653646 h -1.653645 v 1.653646 z m -1.653645,0 h -1.653646 v 1.653646 h 1.653646 z m -1.653646,0 v -1.653646 h -1.653646 v 1.653646 z m -1.653646,0 H 31.41927 v 1.653646 h 1.653646 z m -1.653646,0 v -1.653646 h -1.653646 v 1.653646 z m -1.653646,0 h -1.653645 v 1.653646 h 1.653645 z m -1.653645,0 v -1.653646 h -1.653646 v 1.653646 z m -1.653646,0 h -1.653646 v 1.653646 h 1.653646 z m -1.653646,0 v -1.653646 h -1.653646 v 1.653646 z m -1.653646,0 h -1.653646 v 1.653646 h 1.653646 z m -1.653646,0 V 46.302082 H 19.84375 v 1.653646 z m -1.653645,0 h -1.653646 v 1.653646 h 1.653646 z m -1.653646,0 v -1.653646 h -1.653646 v 1.653646 z m -1.653646,0 h -1.653646 v 1.653646 h 1.653646 z m -1.653646,0 v -1.653646 h -1.653646 v 1.653646 z m -1.653646,0 h -1.653645 v 1.653646 h 1.653645 z m -1.653645,0 V 46.302082 H 9.9218748 v 1.653646 z m -1.6536462,0 H 8.268229 v 1.653646 h 1.6536458 z m -1.6536458,0 V 46.302082 H 6.6145832 v 1.653646 z m -1.6536458,0 H 4.9609374 v 1.653646 h 1.6536458 z m -1.6536458,0 V 46.302082 H 3.3072916 v 1.653646 z m 0,-1.653646 H 6.6145832 V 44.648437 H 4.9609374 Z m 0,-1.653645 V 42.994791 H 3.3072916 v 1.653646 z m 0,-1.653646 H 6.6145832 V 41.341145 H 4.9609374 Z m 0,-1.653646 V 39.687499 H 3.3072916 v 1.653646 z m 0,-1.653646 H 6.6145832 V 38.033853 H 4.9609374 Z m 0,-1.653646 V 36.380208 H 3.3072916 v 1.653645 z m 0,-1.653645 H 6.6145832 V 34.726562 H 4.9609374 Z m 0,-1.653646 V 33.072916 H 3.3072916 v 1.653646 z m 0,-1.653646 H 6.6145832 V 31.41927 H 4.9609374 Z m 0,-1.653646 V 29.765624 H 3.3072916 v 1.653646 z m 0,-1.653646 H 6.6145832 V 28.111979 H 4.9609374 Z m 0,-1.653645 V 26.458333 H 3.3072916 v 1.653646 z m 0,-1.653646 H 6.6145832 V 24.804687 H 4.9609374 Z m 0,-1.653646 V 23.151041 H 3.3072916 v 1.653646 z m 0,-1.653646 H 6.6145832 V 21.497395 H 4.9609374 Z m 0,-1.653646 V 19.84375 H 3.3072916 v 1.653645 z m 0,-1.653645 H 6.6145832 V 18.190104 H 4.9609374 Z m 0,-1.653646 V 16.536458 H 3.3072916 v 1.653646 z m 0,-1.653646 H 6.6145832 V 14.882812 H 4.9609374 Z m 0,-1.653646 V 13.229166 H 3.3072916 v 1.653646 z m 0,-1.653646 H 6.6145832 V 11.575521 H 4.9609374 Z m 0,-1.653645 V 9.9218748 H 3.3072916 v 1.6536462 z m 0,-1.6536462 H 6.6145832 V 8.268229 H 4.9609374 Z m 0,-1.6536458 V 6.6145832 H 3.3072916 V 8.268229 Z m 1.6536458,0 H 8.268229 V 6.6145832 H 6.6145832 Z m 1.6536458,0 V 9.9218748 H 9.9218748 V 8.268229 Z m 1.6536458,0 H 11.575521 V 6.6145832 H 9.9218748 Z m 1.6536462,0 v 1.6536458 h 1.653645 V 8.268229 Z m 1.653645,0 h 1.653646 V 6.6145832 h -1.653646 z m 1.653646,0 v 1.6536458 h 1.653646 V 8.268229 Z m 1.653646,0 h 1.653646 V 6.6145832 h -1.653646 z m 1.653646,0 V 9.9218748 H 19.84375 V 8.268229 Z m 1.653646,0 h 1.653645 V 6.6145832 H 19.84375 Z m 1.653645,0 v 1.6536458 h 1.653646 V 8.268229 Z m 1.653646,0 h 1.653646 V 6.6145832 h -1.653646 z m 1.653646,0 v 1.6536458 h 1.653646 V 8.268229 Z m 1.653646,0 h 1.653646 V 6.6145832 h -1.653646 z m 1.653646,0 v 1.6536458 h 1.653645 V 8.268229 Z m 1.653645,0 H 31.41927 V 6.6145832 h -1.653646 z m 1.653646,0 v 1.6536458 h 1.653646 V 8.268229 Z m 1.653646,0 h 1.653646 V 6.6145832 h -1.653646 z m 1.653646,0 v 1.6536458 h 1.653646 V 8.268229 Z m 1.653646,0 h 1.653645 V 6.6145832 h -1.653645 z m 1.653645,0 v 1.6536458 h 1.653646 V 8.268229 Z m 1.653646,0 h 1.653646 V 6.6145832 h -1.653646 z m 1.653646,0 v 1.6536458 h 1.653646 V 8.268229 Z m 1.653646,0 h 1.653646 V 6.6145832 h -1.653646 z m 1.653646,0 v 1.6536458 h 1.653645 V 8.268229 Z m 0,1.6536458 h -1.653646 v 1.6536462 h 1.653646 z m 0,1.6536462 v 1.653645 h 1.653645 v -1.653645 z m 0,1.653645 h -1.653646 v 1.653646 h 1.653646 z m 0,1.653646 v 1.653646 h 1.653645 v -1.653646 z m 0,1.653646 h -1.653646 v 1.653646 h 1.653646 z m 0,1.653646 v 1.653646 h 1.653645 v -1.653646 z m 0,1.653646 h -1.653646 v 1.653645 h 1.653646 z m 0,1.653645 v 1.653646 h 1.653645 v -1.653646 z m 0,1.653646 h -1.653646 v 1.653646 h 1.653646 z m 0,1.653646 v 1.653646 h 1.653645 v -1.653646 z m 0,1.653646 h -1.653646 v 1.653646 h 1.653646 z m 0,1.653646 v 1.653645 h 1.653645 v -1.653645 z m 0,1.653645 h -1.653646 v 1.653646 h 1.653646 z m 0,1.653646 v 1.653646 h 1.653645 V 31.41927 Z m 0,1.653646 h -1.653646 v 1.653646 h 1.653646 z m 0,1.653646 v 1.653646 h 1.653645 v -1.653646 z m 0,1.653646 h -1.653646 v 1.653645 h 1.653646 z m 0,1.653645 v 1.653646 h 1.653645 v -1.653646 z m 0,1.653646 h -1.653646 v 1.653646 h 1.653646 z m 0,1.653646 v 1.653646 h 1.653645 v -1.653646 z m 0,1.653646 h -1.653646 v 1.653646 h 1.653646 z m 0,1.653646 v 1.653645 h 1.653645 v -1.653645 z m -1.653646,0 h -1.653646 v 1.653645 h 1.653646 z m -1.653646,0 v -1.653646 h -1.653646 v 1.653646 z m -1.653646,0 h -1.653646 v 1.653645 h 1.653646 z m -1.653646,0 v -1.653646 h -1.653645 v 1.653646 z m -1.653645,0 h -1.653646 v 1.653645 h 1.653646 z m -1.653646,0 v -1.653646 h -1.653646 v 1.653646 z m -1.653646,0 H 31.41927 v 1.653645 h 1.653646 z m -1.653646,0 v -1.653646 h -1.653646 v 1.653646 z m -1.653646,0 h -1.653645 v 1.653645 h 1.653645 z m -1.653645,0 v -1.653646 h -1.653646 v 1.653646 z m -1.653646,0 h -1.653646 v 1.653645 h 1.653646 z m -1.653646,0 v -1.653646 h -1.653646 v 1.653646 z m -1.653646,0 h -1.653646 v 1.653645 h 1.653646 z m -1.653646,0 V 42.994791 H 19.84375 v 1.653646 z m -1.653645,0 h -1.653646 v 1.653645 h 1.653646 z m -1.653646,0 v -1.653646 h -1.653646 v 1.653646 z m -1.653646,0 h -1.653646 v 1.653645 h 1.653646 z m -1.653646,0 v -1.653646 h -1.653646 v 1.653646 z m -1.653646,0 h -1.653645 v 1.653645 h 1.653645 z m -1.653645,0 V 42.994791 H 9.9218748 v 1.653646 z m -1.6536462,0 H 8.268229 v 1.653645 h 1.6536458 z m -1.6536458,0 V 42.994791 H 6.6145832 v 1.653646 z m 0,-1.653646 H 9.9218748 V 41.341145 H 8.268229 Z m 0,-1.653646 V 39.687499 H 6.6145832 v 1.653646 z m 0,-1.653646 H 9.9218748 V 38.033853 H 8.268229 Z m 0,-1.653646 V 36.380208 H 6.6145832 v 1.653645 z m 0,-1.653645 H 9.9218748 V 34.726562 H 8.268229 Z m 0,-1.653646 V 33.072916 H 6.6145832 v 1.653646 z m 0,-1.653646 H 9.9218748 V 31.41927 H 8.268229 Z m 0,-1.653646 V 29.765624 H 6.6145832 v 1.653646 z m 0,-1.653646 H 9.9218748 V 28.111979 H 8.268229 Z m 0,-1.653645 V 26.458333 H 6.6145832 v 1.653646 z m 0,-1.653646 H 9.9218748 V 24.804687 H 8.268229 Z m 0,-1.653646 V 23.151041 H 6.6145832 v 1.653646 z m 0,-1.653646 H 9.9218748 V 21.497395 H 8.268229 Z m 0,-1.653646 V 19.84375 H 6.6145832 v 1.653645 z m 0,-1.653645 H 9.9218748 V 18.190104 H 8.268229 Z m 0,-1.653646 V 16.536458 H 6.6145832 v 1.653646 z m 0,-1.653646 H 9.9218748 V 14.882812 H 8.268229 Z m 0,-1.653646 V 13.229166 H 6.6145832 v 1.653646 z m 0,-1.653646 H 9.9218748 V 11.575521 H 8.268229 Z m 0,-1.653645 V 9.9218748 H 6.6145832 v 1.6536462 z m 1.6536458,0 H 11.575521 V 9.9218748 H 9.9218748 Z m 1.6536462,0 v 1.653645 h 1.653645 v -1.653645 z m 1.653645,0 h 1.653646 V 9.9218748 h -1.653646 z m 1.653646,0 v 1.653645 h 1.653646 v -1.653645 z m 1.653646,0 h 1.653646 V 9.9218748 h -1.653646 z m 1.653646,0 v 1.653645 h 1.653646 v -1.653645 z m 1.653646,0 h 1.653645 V 9.9218748 H 19.84375 Z m 1.653645,0 v 1.653645 h 1.653646 v -1.653645 z m 1.653646,0 h 1.653646 V 9.9218748 h -1.653646 z m 1.653646,0 v 1.653645 h 1.653646 v -1.653645 z m 1.653646,0 h 1.653646 V 9.9218748 h -1.653646 z m 1.653646,0 v 1.653645 h 1.653645 v -1.653645 z m 1.653645,0 H 31.41927 V 9.9218748 h -1.653646 z m 1.653646,0 v 1.653645 h 1.653646 v -1.653645 z m 1.653646,0 h 1.653646 V 9.9218748 h -1.653646 z m 1.653646,0 v 1.653645 h 1.653646 v -1.653645 z m 1.653646,0 h 1.653645 V 9.9218748 h -1.653645 z m 1.653645,0 v 1.653645 h 1.653646 v -1.653645 z m 1.653646,0 h 1.653646 V 9.9218748 h -1.653646 z m 1.653646,0 v 1.653645 h 1.653646 v -1.653645 z m 0,1.653645 h -1.653646 v 1.653646 h 1.653646 z m 0,1.653646 v 1.653646 h 1.653646 v -1.653646 z m 0,1.653646 h -1.653646 v 1.653646 h 1.653646 z m 0,1.653646 v 1.653646 h 1.653646 v -1.653646 z m 0,1.653646 h -1.653646 v 1.653645 h 1.653646 z m 0,1.653645 v 1.653646 h 1.653646 v -1.653646 z m 0,1.653646 h -1.653646 v 1.653646 h 1.653646 z m 0,1.653646 v 1.653646 h 1.653646 v -1.653646 z m 0,1.653646 h -1.653646 v 1.653646 h 1.653646 z m 0,1.653646 v 1.653645 h 1.653646 v -1.653645 z m 0,1.653645 h -1.653646 v 1.653646 h 1.653646 z m 0,1.653646 v 1.653646 h 1.653646 V 31.41927 Z m 0,1.653646 h -1.653646 v 1.653646 h 1.653646 z m 0,1.653646 v 1.653646 h 1.653646 v -1.653646 z m 0,1.653646 h -1.653646 v 1.653645 h 1.653646 z m 0,1.653645 v 1.653646 h 1.653646 v -1.653646 z m 0,1.653646 h -1.653646 v 1.653646 h 1.653646 z m 0,1.653646 v 1.653646 h 1.653646 v -1.653646 z m -1.653646,0 h -1.653646 v 1.653646 h 1.653646 z m -1.653646,0 v -1.653646 h -1.653645 v 1.653646 z m -1.653645,0 h -1.653646 v 1.653646 h 1.653646 z m -1.653646,0 v -1.653646 h -1.653646 v 1.653646 z m -1.653646,0 H 31.41927 v 1.653646 h 1.653646 z m -1.653646,0 v -1.653646 h -1.653646 v 1.653646 z m -1.653646,0 h -1.653645 v 1.653646 h 1.653645 z m -1.653645,0 v -1.653646 h -1.653646 v 1.653646 z m -1.653646,0 h -1.653646 v 1.653646 h 1.653646 z m -1.653646,0 v -1.653646 h -1.653646 v 1.653646 z m -1.653646,0 h -1.653646 v 1.653646 h 1.653646 z m -1.653646,0 V 39.687499 H 19.84375 v 1.653646 z m -1.653645,0 h -1.653646 v 1.653646 h 1.653646 z m -1.653646,0 v -1.653646 h -1.653646 v 1.653646 z m -1.653646,0 h -1.653646 v 1.653646 h 1.653646 z m -1.653646,0 v -1.653646 h -1.653646 v 1.653646 z m -1.653646,0 h -1.653645 v 1.653646 h 1.653645 z m -1.653645,0 V 39.687499 H 9.9218748 v 1.653646 z m 0,-1.653646 h 1.653645 v -1.653646 h -1.653645 z m 0,-1.653646 V 36.380208 H 9.9218748 v 1.653645 z m 0,-1.653645 h 1.653645 v -1.653646 h -1.653645 z m 0,-1.653646 V 33.072916 H 9.9218748 v 1.653646 z m 0,-1.653646 h 1.653645 V 31.41927 h -1.653645 z m 0,-1.653646 V 29.765624 H 9.9218748 v 1.653646 z m 0,-1.653646 h 1.653645 v -1.653645 h -1.653645 z m 0,-1.653645 V 26.458333 H 9.9218748 v 1.653646 z m 0,-1.653646 h 1.653645 v -1.653646 h -1.653645 z m 0,-1.653646 V 23.151041 H 9.9218748 v 1.653646 z m 0,-1.653646 h 1.653645 v -1.653646 h -1.653645 z m 0,-1.653646 V 19.84375 H 9.9218748 v 1.653645 z m 0,-1.653645 h 1.653645 v -1.653646 h -1.653645 z m 0,-1.653646 V 16.536458 H 9.9218748 v 1.653646 z m 0,-1.653646 h 1.653645 v -1.653646 h -1.653645 z m 0,-1.653646 V 13.229166 H 9.9218748 v 1.653646 z m 1.653645,0 h 1.653646 v -1.653646 h -1.653646 z m 1.653646,0 v 1.653646 h 1.653646 v -1.653646 z m 1.653646,0 h 1.653646 v -1.653646 h -1.653646 z m 1.653646,0 v 1.653646 h 1.653646 v -1.653646 z m 1.653646,0 h 1.653645 V 13.229166 H 19.84375 Z m 1.653645,0 v 1.653646 h 1.653646 v -1.653646 z m 1.653646,0 h 1.653646 v -1.653646 h -1.653646 z m 1.653646,0 v 1.653646 h 1.653646 v -1.653646 z m 1.653646,0 h 1.653646 v -1.653646 h -1.653646 z m 1.653646,0 v 1.653646 h 1.653645 v -1.653646 z m 1.653645,0 h 1.653646 v -1.653646 h -1.653646 z m 1.653646,0 v 1.653646 h 1.653646 v -1.653646 z m 1.653646,0 h 1.653646 v -1.653646 h -1.653646 z m 1.653646,0 v 1.653646 h 1.653646 v -1.653646 z m 1.653646,0 h 1.653645 v -1.653646 h -1.653645 z m 1.653645,0 v 1.653646 h 1.653646 v -1.653646 z m 0,1.653646 h -1.653645 v 1.653646 h 1.653645 z m 0,1.653646 v 1.653646 h 1.653646 v -1.653646 z m 0,1.653646 h -1.653645 v 1.653645 h 1.653645 z m 0,1.653645 v 1.653646 h 1.653646 v -1.653646 z m 0,1.653646 h -1.653645 v 1.653646 h 1.653645 z m 0,1.653646 v 1.653646 h 1.653646 v -1.653646 z m 0,1.653646 h -1.653645 v 1.653646 h 1.653645 z m 0,1.653646 v 1.653645 h 1.653646 v -1.653645 z m 0,1.653645 h -1.653645 v 1.653646 h 1.653645 z m 0,1.653646 v 1.653646 h 1.653646 V 31.41927 Z m 0,1.653646 h -1.653645 v 1.653646 h 1.653645 z m 0,1.653646 v 1.653646 h 1.653646 v -1.653646 z m 0,1.653646 h -1.653645 v 1.653645 h 1.653645 z m 0,1.653645 v 1.653646 h 1.653646 v -1.653646 z m -1.653645,0 h -1.653646 v 1.653646 h 1.653646 z m -1.653646,0 v -1.653645 h -1.653646 v 1.653645 z m -1.653646,0 H 31.41927 v 1.653646 h 1.653646 z m -1.653646,0 v -1.653645 h -1.653646 v 1.653645 z m -1.653646,0 h -1.653645 v 1.653646 h 1.653645 z m -1.653645,0 v -1.653645 h -1.653646 v 1.653645 z m -1.653646,0 h -1.653646 v 1.653646 h 1.653646 z m -1.653646,0 v -1.653645 h -1.653646 v 1.653645 z m -1.653646,0 h -1.653646 v 1.653646 h 1.653646 z m -1.653646,0 V 36.380208 H 19.84375 v 1.653645 z m -1.653645,0 h -1.653646 v 1.653646 h 1.653646 z m -1.653646,0 v -1.653645 h -1.653646 v 1.653645 z m -1.653646,0 h -1.653646 v 1.653646 h 1.653646 z m -1.653646,0 v -1.653645 h -1.653646 v 1.653645 z m 0,-1.653645 h 1.653646 v -1.653646 h -1.653646 z m 0,-1.653646 v -1.653646 h -1.653646 v 1.653646 z m 0,-1.653646 h 1.653646 V 31.41927 h -1.653646 z m 0,-1.653646 v -1.653646 h -1.653646 v 1.653646 z m 0,-1.653646 h 1.653646 v -1.653645 h -1.653646 z m 0,-1.653645 v -1.653646 h -1.653646 v 1.653646 z m 0,-1.653646 h 1.653646 v -1.653646 h -1.653646 z m 0,-1.653646 v -1.653646 h -1.653646 v 1.653646 z m 0,-1.653646 h 1.653646 v -1.653646 h -1.653646 z m 0,-1.653646 V 19.84375 h -1.653646 v 1.653645 z m 0,-1.653645 h 1.653646 v -1.653646 h -1.653646 z m 0,-1.653646 v -1.653646 h -1.653646 v 1.653646 z m 1.653646,0 h 1.653646 v -1.653646 h -1.653646 z m 1.653646,0 v 1.653646 h 1.653646 v -1.653646 z m 1.653646,0 h 1.653645 V 16.536458 H 19.84375 Z m 1.653645,0 v 1.653646 h 1.653646 v -1.653646 z m 1.653646,0 h 1.653646 v -1.653646 h -1.653646 z m 1.653646,0 v 1.653646 h 1.653646 v -1.653646 z m 1.653646,0 h 1.653646 v -1.653646 h -1.653646 z m 1.653646,0 v 1.653646 h 1.653645 v -1.653646 z m 1.653645,0 h 1.653646 v -1.653646 h -1.653646 z m 1.653646,0 v 1.653646 h 1.653646 v -1.653646 z m 1.653646,0 h 1.653646 v -1.653646 h -1.653646 z m 1.653646,0 v 1.653646 h 1.653646 v -1.653646 z m 0,1.653646 h -1.653646 v 1.653645 h 1.653646 z m 0,1.653645 v 1.653646 h 1.653646 v -1.653646 z m 0,1.653646 h -1.653646 v 1.653646 h 1.653646 z m 0,1.653646 v 1.653646 h 1.653646 v -1.653646 z m 0,1.653646 h -1.653646 v 1.653646 h 1.653646 z m 0,1.653646 v 1.653645 h 1.653646 v -1.653645 z m 0,1.653645 h -1.653646 v 1.653646 h 1.653646 z m 0,1.653646 v 1.653646 h 1.653646 V 31.41927 Z m 0,1.653646 h -1.653646 v 1.653646 h 1.653646 z m 0,1.653646 v 1.653646 h 1.653646 v -1.653646 z m -1.653646,0 H 31.41927 v 1.653646 h 1.653646 z m -1.653646,0 v -1.653646 h -1.653646 v 1.653646 z m -1.653646,0 h -1.653645 v 1.653646 h 1.653645 z m -1.653645,0 v -1.653646 h -1.653646 v 1.653646 z m -1.653646,0 h -1.653646 v 1.653646 h 1.653646 z m -1.653646,0 v -1.653646 h -1.653646 v 1.653646 z m -1.653646,0 h -1.653646 v 1.653646 h 1.653646 z m -1.653646,0 V 33.072916 H 19.84375 v 1.653646 z m -1.653645,0 h -1.653646 v 1.653646 h 1.653646 z m -1.653646,0 v -1.653646 h -1.653646 v 1.653646 z m 0,-1.653646 H 19.84375 V 31.41927 h -1.653646 z m 0,-1.653646 v -1.653646 h -1.653646 v 1.653646 z m 0,-1.653646 h 1.653646 v -1.653645 h -1.653646 z m 0,-1.653645 v -1.653646 h -1.653646 v 1.653646 z m 0,-1.653646 h 1.653646 v -1.653646 h -1.653646 z m 0,-1.653646 v -1.653646 h -1.653646 v 1.653646 z m 0,-1.653646 h 1.653646 v -1.653646 h -1.653646 z m 0,-1.653646 V 19.84375 h -1.653646 v 1.653645 z m 1.653646,0 h 1.653645 V 19.84375 H 19.84375 Z m 1.653645,0 v 1.653646 h 1.653646 v -1.653646 z m 1.653646,0 h 1.653646 V 19.84375 h -1.653646 z m 1.653646,0 v 1.653646 h 1.653646 v -1.653646 z m 1.653646,0 h 1.653646 V 19.84375 h -1.653646 z m 1.653646,0 v 1.653646 h 1.653645 v -1.653646 z m 1.653645,0 H 31.41927 V 19.84375 h -1.653646 z m 1.653646,0 v 1.653646 h 1.653646 v -1.653646 z m 0,1.653646 h -1.653646 v 1.653646 h 1.653646 z m 0,1.653646 v 1.653646 h 1.653646 v -1.653646 z m 0,1.653646 h -1.653646 v 1.653646 h 1.653646 z m 0,1.653646 v 1.653645 h 1.653646 v -1.653645 z m 0,1.653645 h -1.653646 v 1.653646 h 1.653646 z m 0,1.653646 v 1.653646 h 1.653646 V 31.41927 Z m -1.653646,0 h -1.653645 v 1.653646 h 1.653645 z m -1.653645,0 v -1.653646 h -1.653646 v 1.653646 z m -1.653646,0 h -1.653646 v 1.653646 h 1.653646 z m -1.653646,0 v -1.653646 h -1.653646 v 1.653646 z m -1.653646,0 h -1.653646 v 1.653646 h 1.653646 z m -1.653646,0 V 29.765624 H 19.84375 v 1.653646 z m 0,-1.653646 h 1.653646 v -1.653645 h -1.653646 z m 0,-1.653645 V 26.458333 H 19.84375 v 1.653646 z m 0,-1.653646 h 1.653646 v -1.653646 h -1.653646 z m 0,-1.653646 V 23.151041 H 19.84375 v 1.653646 z m 1.653646,0 h 1.653646 v -1.653646 h -1.653646 z m 1.653646,0 v 1.653646 h 1.653646 v -1.653646 z m 1.653646,0 h 1.653646 v -1.653646 h -1.653646 z m 1.653646,0 v 1.653646 h 1.653645 v -1.653646 z m 0,1.653646 h -1.653646 v 1.653646 h 1.653646 z m 0,1.653646 v 1.653645 h 1.653645 v -1.653645 z m -1.653646,0 h -1.653646 v 1.653645 h 1.653646 z m -1.653646,0 v -1.653646 h -1.653646 v 1.653646 z" /></g><g
       id="g11"
       inkscape:label="Car"
       style="display:inline"
       inkscape:export-filename="MiniGames\CarCrash\Car.png"
       inkscape:export-xdpi="1177.1058"
       inkscape:export-ydpi="1177.1058"
       transform="matrix(0.99849982,0,0,0.99849982,-19.945084,-17.135007)"><path
         id="path1"
         style="display:inline;fill:none;stroke:#0b0c31;stroke-width:1.3249;stroke-linecap:round;stroke-linejoin:round;stroke-dasharray:none;stroke-opacity:1;paint-order:markers stroke fill"
         inkscape:label="BackGround"
         d="m 26.45828,17.823201 a 5.8208332,1.4911914 0 0 0 -5.82078,1.491552 v 1.851761 h 0.01294 c -0.0055,0.04388 -0.01294,0.08707 -0.01294,0.13249 v 4.497947 c 0,0.392177 0.213615,0.729057 0.528927,0.911907 v 8.891349 c -0.315353,0.18284 -0.528927,0.520218 -0.528927,0.912424 v 4.497947 0.92588 c -1e-6,0.584501 0.473869,1.058371 1.058371,1.058371 h 9.524819 c 0.584499,0 1.058371,-0.47387 1.058371,-1.058371 v -4.497946 -0.925881 c 0,-0.392206 -0.213574,-0.729584 -0.528927,-0.912424 v -8.891349 c 0.315312,-0.18285 0.528927,-0.51973 0.528927,-0.911907 v -4.497947 c 0,-0.04542 -0.0074,-0.08861 -0.01294,-0.13249 h 0.01294 V 19.314753 A 5.8208332,1.4911914 0 0 0 26.45828,17.823201 Z" /><path
         id="rect9"
         style="display:inline;fill:#455894;stroke-width:6.93744;stroke-linecap:round;stroke-linejoin:round"
         inkscape:label="Iron"
         d="M 26.458333,17.823201 A 5.8208332,1.4911914 0 0 0 20.6375,19.314583 v 1.852083 h 11.641666 v -1.852083 a 5.8208332,1.4911914 0 0 0 -5.820833,-1.491382 z m -4.7625,18.557007 c -0.584502,-1e-6 -1.058334,0.473831 -1.058333,1.058333 v 4.497916 c -1e-6,0.584502 0.473831,1.058334 1.058333,1.058334 h 9.525 c 0.5845,0 1.058333,-0.473832 1.058333,-1.058334 v -4.497916 c 0,-0.584502 -0.473833,-1.058334 -1.058333,-1.058333 z" /><g
         id="g18"
         inkscape:label="BottomLights"
         transform="translate(-0.79375004)"
         style="display:none"><g
           id="g15"
           inkscape:label="Left"><rect
             style="fill:#f4402a;fill-opacity:1;stroke-width:6.65843;stroke-linecap:round;stroke-linejoin:round"
             id="rect15"
             width="1.6844687"
             height="0.42111602"
             x="22.970264"
             y="42.333332"
             ry="0.10856951" /><rect
             style="fill:#5892be;fill-opacity:1;stroke-width:8.36684;stroke-linecap:round;stroke-linejoin:round"
             id="rect14"
             width="2.1166661"
             height="0.52916503"
             x="22.754166"
             y="42.068748"
             ry="0.13642603" /></g><g
           id="g17"
           inkscape:label="Left"
           transform="translate(6.8791664)"><rect
             style="fill:#f4402a;fill-opacity:1;stroke-width:6.65843;stroke-linecap:round;stroke-linejoin:round"
             id="rect16"
             width="1.6844687"
             height="0.42111602"
             x="22.970264"
             y="42.333332"
             ry="0.10856951" /><rect
             style="fill:#5892be;fill-opacity:1;stroke-width:8.36684;stroke-linecap:round;stroke-linejoin:round"
             id="rect17"
             width="2.1166661"
             height="0.52916503"
             x="22.754166"
             y="42.068748"
             ry="0.13642603" /></g></g><path
         id="rect11"
         style="display:inline;fill:#3a0737;fill-opacity:1;stroke-width:6.93744;stroke-linecap:round;stroke-linejoin:round"
         d="m 21.695833,20.240625 c -0.586319,0 -1.058333,0.472014 -1.058333,1.058333 v 4.497916 c 0,0.586319 0.472014,1.058334 1.058333,1.058334 h 9.525 c 0.586318,0 1.058333,-0.472015 1.058333,-1.058334 v -4.497916 c 0,-0.586319 -0.472015,-1.058333 -1.058333,-1.058333 z m 0,15.213541 c -0.586317,0 -1.058333,0.472016 -1.058333,1.058333 v 4.497917 c 0,0.586317 0.472016,1.058333 1.058333,1.058333 h 9.525 c 0.586317,0 1.058333,-0.472016 1.058333,-1.058333 v -4.497917 c 0,-0.586317 -0.472016,-1.058333 -1.058333,-1.058333 z"
         inkscape:label="Wheel" /><g
         id="g23"
         inkscape:label="TopLights"
         transform="rotate(180,26.855207,30.995383)"
         style="display:none"><g
           id="g20"
           inkscape:label="Left"><rect
             style="fill:#faffff;fill-opacity:1;stroke-width:6.65843;stroke-linecap:round;stroke-linejoin:round"
             id="rect19"
             width="1.6844687"
             height="0.42111602"
             x="22.970264"
             y="42.333332"
             ry="0.10856951" /><rect
             style="fill:#5892be;fill-opacity:1;stroke-width:8.36684;stroke-linecap:round;stroke-linejoin:round"
             id="rect20"
             width="2.1166661"
             height="0.52916503"
             x="22.754166"
             y="42.068748"
             ry="0.13642603" /></g><g
           id="g22"
           inkscape:label="Left"
           transform="translate(6.8791664)"><rect
             style="fill:#faffff;fill-opacity:1;stroke-width:6.65843;stroke-linecap:round;stroke-linejoin:round"
             id="rect21"
             width="1.6844687"
             height="0.42111602"
             x="22.970264"
             y="42.333332"
             ry="0.10856951" /><rect
             style="fill:#5892be;fill-opacity:1;stroke-width:8.36684;stroke-linecap:round;stroke-linejoin:round"
             id="rect22"
             width="2.1166661"
             height="0.52916503"
             x="22.754166"
             y="42.068748"
             ry="0.13642603" /></g></g><path
         id="rect3"
         style="display:inline;fill:#7e1950;fill-opacity:1;stroke:#b72d61;stroke-width:0;stroke-linecap:round;stroke-linejoin:round;stroke-dasharray:none;stroke-opacity:1"
         d="m 21.629687,20.240628 -0.463021,4.630205 v 16.933332 a 0.5291664,0.5291664 45 0 0 0.529166,0.529166 l 9.525,0 a 0.52916716,0.52916716 135.00001 0 0 0.529167,-0.529167 l 5e-6,-16.933298 -0.462718,-4.627187 a 0.73790626,0.73790626 42.144806 0 0 -0.734242,-0.664482 l -8.19245,-2.9e-5 a 0.73455029,0.73455029 137.8554 0 0 -0.730907,0.66146 z"
         sodipodi:nodetypes="ccccccc"
         inkscape:path-effect="#path-effect13"
         inkscape:original-d="m 21.695833,19.579166 -0.529167,5.291667 v 17.462498 h 10.583333 l 5e-6,-17.462465 -0.529166,-5.291667 z"
         inkscape:label="Body" /><path
         id="rect23"
         style="display:inline;opacity:0.3;fill:#a70e62;fill-opacity:1;stroke:#b72d61;stroke-width:0;stroke-linecap:square;stroke-linejoin:round;stroke-dasharray:none;stroke-opacity:1"
         d="m 23.018749,20.108332 c -0.305297,8.3e-5 -0.560881,0.231446 -0.591259,0.535228 l -0.467074,3.698105 v 1.852083 c 2.96412,-0.34558 5.9613,-0.359915 8.995833,0 v -1.852083 l -0.464148,-3.695597 c -0.0305,-0.30528 -0.287386,-0.537765 -0.594186,-0.537736 z"
         sodipodi:nodetypes="csccccccc" /><path
         id="rect26"
         style="display:inline;fill:#a70e62;stroke-width:0;stroke-linecap:square;stroke-linejoin:round"
         d="m 22.486356,29.839609 c 2.650924,-0.275602 5.298893,-0.274503 7.943941,9.5e-5 0.290687,0.03018 0.525952,0.295127 0.525952,0.587377 -2e-6,1.862598 1e-6,7.090615 1e-6,10.583332 0,0.292251 -0.236917,0.529168 -0.529168,0.529168 h -7.94742 A 0.51924474,0.51924474 45 0 1 21.960417,41.020336 V 30.42708 c 0,-0.29225 0.235258,-0.55725 0.525939,-0.587471 z"
         inkscape:path-effect="#path-effect29"
         inkscape:original-d="m 21.960417,29.897915 c 3.002387,-0.353553 6.000981,-0.352003 8.995833,0 -4e-6,1.112873 0,7.761111 0,11.641666 h -8.995833 z"
         sodipodi:nodetypes="ccccc" /><path
         id="rect28"
         style="display:inline;fill:#d4eceb;stroke-width:0;stroke-linecap:square;stroke-linejoin:round"
         d="m 22.221757,26.693372 c 2.787162,-0.305861 5.609808,-0.320647 8.473274,-5.72e-4 0.144324,0.01613 0.249504,0.147257 0.235054,0.291758 l -0.211899,2.118979 c -0.01465,0.146472 -0.145021,0.251142 -0.291307,0.234744 -2.801984,-0.314087 -5.152913,-0.310136 -7.933378,-2.48e-4 -0.148338,0.01653 -0.280539,-0.08966 -0.295388,-0.238142 l -0.211527,-2.115275 c -0.01445,-0.144534 0.09078,-0.275399 0.235171,-0.291244 z"
         sodipodi:nodetypes="ccccc"
         inkscape:path-effect="#path-effect28"
         inkscape:original-d="m 21.960416,26.722915 c 2.956676,-0.344001 5.953158,-0.361466 8.995833,0 l -0.264584,2.645833 c -3.010515,-0.355199 -5.479797,-0.350349 -8.466666,0 z" /><path
         id="path28"
         style="display:none;fill:#7e1950;fill-opacity:1;stroke:#b72d61;stroke-width:0;stroke-linecap:square;stroke-linejoin:round;stroke-dasharray:none;stroke-opacity:1"
         d="m 22.360392,19.579166 c -0.377299,1.03e-4 -0.693162,0.286032 -0.730705,0.661459 l -0.463021,4.630208 1.058333,0.966865 h 8.466667 l 1.058333,-0.966865 -0.462504,-4.627108 C 31.249807,19.866446 30.93233,19.57913 30.553173,19.579166 Z"
         sodipodi:nodetypes="csccccccc" /></g><g
       id="g30"
       inkscape:label="Target"
       inkscape:export-filename="MiniGames\CarCrash\Target.png"
       inkscape:export-xdpi="575.9989"
       inkscape:export-ydpi="575.9989"
       transform="matrix(2.7841524,0,0,2.7841422,-49.123476,-10.239908)"
       style="fill:#2357d5;stroke-width:0.485584;stroke-dasharray:none"><circle
         style="opacity:1;fill:#2357d5;stroke:#0b0c31;stroke-width:0.485584;stroke-linecap:square;stroke-linejoin:round;stroke-dasharray:none;paint-order:markers stroke fill"
         id="path27"
         cx="37.041664"
         cy="13.229167"
         r="9.260417"
         inkscape:label="BackGround" /><path
         sodipodi:type="spiral"
         style="fill:#2357d5;fill-rule:evenodd;stroke:#0b0c31;stroke-width:0.219973;stroke-dasharray:none"
         id="path30"
         sodipodi:cx="37.207031"
         sodipodi:cy="13.229166"
         sodipodi:expansion="6"
         sodipodi:revolution="12.575541"
         sodipodi:radius="8.9896364"
         sodipodi:argument="-6.2831855"
         sodipodi:t0="0.44987339"
         d="m 37.166078,13.166906 c 0.03504,-0.03258 0.09057,-0.02473 0.121656,0.0092 0.0416,0.04537 0.03132,0.11679 -0.01263,0.156573 -0.05813,0.05262 -0.149057,0.03931 -0.199474,-0.01706 -0.06596,-0.07374 -0.04891,-0.18844 0.02266,-0.251757 0.0927,-0.08201 0.236143,-0.06039 0.314998,0.02966 0.101182,0.115552 0.07402,0.293519 -0.03833,0.390961 -0.142918,0.123954 -0.362076,0.09012 -0.481619,-0.04896 -0.15084,-0.175483 -0.109007,-0.443495 0.06188,-0.589162 0.214006,-0.182418 0.539638,-0.131076 0.716018,0.07748 0.219318,0.25933 0.156734,0.652565 -0.09617,0.86487 -0.312383,0.262236 -0.784542,0.18643 -1.038667,-0.118411 -0.311931,-0.374183 -0.220657,-0.93806 0.14472,-1.240649 0.445851,-0.369234 1.115845,-0.259949 1.474362,0.175669 0.435048,0.528604 0.304885,1.320872 -0.21188,1.743673 -0.623777,0.510354 -1.556389,0.356094 -2.052795,-0.254042 -0.59622,-0.732817 -0.414258,-1.825918 0.302904,-2.406306 0.857294,-0.693795 2.133281,-0.480106 2.809163,0.359288 0.804324,0.998908 0.55443,2.482615 -0.424084,3.266732 -1.159498,0.929146 -2.878386,0.638077 -3.784803,-0.498261 -1.069704,-1.341046 -0.731958,-3.325408 0.58287,-4.369615 1.545682,-1.2275453 3.828858,-0.8370482 5.027876,0.679046 1.404328,1.775698 0.95439,4.394298 -0.788012,5.766788 -2.033553,1.601829 -5.027692,1.085097 -6.594073,-0.911089 -1.821946,-2.321879 -1.230359,-5.735423 1.049694,-7.5179906 2.643489,-2.0667046 6.524314,-1.3914403 8.547369,1.2053493 2.338263,3.0013893 1.569686,7.4016463 -1.379686,9.6916283 -3.398783,2.638917 -8.375183,1.766527 -10.960803,-1.574449 -1.897973,-2.452441 -2.266328,-5.822081 -1.068113,-8.6652775"
         transform="matrix(1.059585,0,0,1.059585,-2.2149611,-0.78896955)" /></g><path
       sodipodi:type="star"
       style="opacity:1;fill:#2357d5;fill-opacity:1;stroke:#0b0c31;stroke-width:1.10541;stroke-linecap:square;stroke-linejoin:round;stroke-dasharray:none;stroke-opacity:1;paint-order:markers stroke fill"
       id="path29"
       inkscape:flatsided="true"
       sodipodi:sides="3"
       sodipodi:cx="18.190104"
       sodipodi:cy="13.229166"
       sodipodi:r1="5.7877598"
       sodipodi:r2="2.8938799"
       sodipodi:arg1="0"
       sodipodi:arg2="1.0471976"
       inkscape:rounded="0.125"
       inkscape:randomized="0"
       d="m 23.977863,13.229166 c 0,1.253087 -7.596434,5.63889 -8.681639,5.012347 -1.085205,-0.626543 -1.085205,-9.3981506 0,-10.024694 1.085205,-0.6265433 8.681639,3.75926 8.681639,5.012347 z"
       inkscape:transform-center-x="-3.0219601"
       transform="matrix(1.196761,0,0,1.196761,-3.2175437,-2.9228449)"
       inkscape:label="Arrow"
       inkscape:export-filename="MiniGames\CarCrash\Arrow.png"
       inkscape:export-xdpi="1201.2473"
       inkscape:export-ydpi="1201.2473"
       inkscape:transform-center-y="0.18708867" /></g></svg>
